<?xml version="1.0" encoding="UTF-8"?>
<svg version="1.1" xmlns="http://www.w3.org/2000/svg" width="512" height="512">
<path d="M0 0 C15.30338218 10.63883776 26.61117697 25.06492726 30.125 43.75 C30.36440318 46.64162399 30.36042988 49.50637026 30.3203125 52.40625 C30.31606766 53.58785706 30.31606766 53.58785706 30.31173706 54.79333496 C30.30065169 57.27905264 30.2755701 59.7643935 30.25 62.25 C30.2399551 63.94791142 30.23083191 65.64582855 30.22265625 67.34375 C30.20246253 71.4794243 30.16329355 75.6142965 30.125 79.75 C40.685 79.75 51.245 79.75 62.125 79.75 C62.125 95.59 62.125 111.43 62.125 127.75 C75.40707708 127.59254394 75.40707708 127.59254394 88.68847656 127.38964844 C105.44925366 127.21749766 117.33111914 130.4244136 129.875 142.0625 C138.08786696 150.95987896 142.08199981 162.36462194 146.55245972 173.41497803 C147.78103323 176.45170643 149.0192107 179.48436107 150.26000977 182.51611328 C151.5661387 185.7075952 152.87174934 188.89927597 154.17451477 192.09213257 C158.74610917 203.29390178 163.40055991 214.46060198 168.0625 225.625 C168.88992067 227.60843415 169.71723158 229.5919141 170.54443359 231.57543945 C171.79451664 234.57296867 173.04466443 237.57047067 174.29516602 240.56782532 C177.38325979 247.96979626 180.46774794 255.37326376 183.55078125 262.77734375 C184.45124947 264.93961746 185.35172143 267.10188961 186.25219727 269.26416016 C187.54124853 272.35953153 188.8302218 275.4549352 190.11886597 278.55047607 C190.91574187 280.46461153 191.71375494 282.37827402 192.51298523 284.29142761 C193.28423968 286.14860637 194.04723332 288.00923773 194.80183411 289.87324524 C196.50384892 294.04876316 198.24684646 298.0790106 200.45214844 302.01489258 C208.79106797 317.55762156 207.18016797 335.10713496 206.9074707 352.2388916 C206.86399205 355.68498322 206.86560336 359.13044165 206.86802292 362.57676029 C206.86693038 365.92715487 206.84492294 369.27714859 206.81601715 372.62740898 C206.80341273 374.21282376 206.79543469 375.79828314 206.79244232 377.38374519 C206.74786031 388.63597898 205.86651373 398.61199035 197.828125 407.21875 C190.9924251 413.36460862 183.86105095 415.99734129 174.66794205 416.00726891 C173.93463751 416.01077498 173.20133298 416.01428105 172.4458071 416.01789337 C169.98725345 416.02720131 167.528937 416.02228565 165.07037354 416.01742554 C163.29040641 416.02116211 161.51044093 416.02576365 159.73047805 416.03115618 C154.8378416 416.04340083 149.94527346 416.04312398 145.05262518 416.04076743 C139.77640572 416.04035963 134.50020826 416.05139488 129.22399902 416.06088257 C118.88620272 416.0775017 108.54842922 416.08299253 98.21062067 416.08410732 C89.80790875 416.08505739 81.40520435 416.0891656 73.00249481 416.09550858 C49.18278424 416.11312365 25.3630917 416.12234706 1.54337457 416.12084763 C-0.38316909 416.12072776 -0.38316909 416.12072776 -2.34863281 416.12060547 C-3.63456228 416.12052371 -4.92049175 416.12044195 -6.24538878 416.12035771 C-27.08636402 416.11954478 -47.927267 416.13868339 -68.76822135 416.1668822 C-90.16411954 416.19560359 -111.55998247 416.2094229 -132.95590043 416.20769465 C-144.96944877 416.20703048 -156.98292135 416.2125346 -168.99645233 416.23405075 C-179.22514027 416.25225273 -189.45371811 416.25661794 -199.68241522 416.2430319 C-204.90085951 416.23649727 -210.11909253 416.23640306 -215.33751678 416.2537384 C-220.1169557 416.2694521 -224.89601553 416.26662277 -229.67544511 416.24917014 C-231.40221725 416.2460965 -233.12901757 416.24974632 -234.85575649 416.26089029 C-246.380566 416.33032818 -256.50200997 415.71097654 -265.34375 407.453125 C-271.28626454 400.84359353 -274.01578599 393.7395728 -274.38769531 384.86645508 C-274.41643612 384.20223384 -274.44517693 383.5380126 -274.47478867 382.85366344 C-274.56380047 380.65920458 -274.63596203 378.46476357 -274.703125 376.26953125 C-274.727164 375.50784637 -274.751203 374.7461615 -274.77597046 373.96139526 C-275.7770609 340.45976713 -276.1587683 311.4413942 -259.82180786 281.26599121 C-254.90644523 272.17914028 -251.10611092 262.67569007 -247.2371521 253.10806274 C-245.18703616 248.06118391 -243.08087837 243.0378213 -240.98046875 238.01171875 C-240.13559685 235.98368952 -239.2910348 233.95553119 -238.44677734 231.92724609 C-237.81397858 230.40741119 -237.81397858 230.40741119 -237.168396 228.85687256 C-235.85245546 225.69584565 -234.53677648 222.53471002 -233.22119141 219.37353516 C-232.78029678 218.31415741 -232.33940216 217.25477966 -231.88514709 216.16329956 C-230.99872918 214.03337869 -230.11236607 211.903435 -229.22605896 209.77346802 C-227.07749027 204.61105225 -224.92680481 199.449538 -222.77124023 194.29003906 C-221.95684935 192.34050279 -221.14247717 190.3909587 -220.328125 188.44140625 C-219.93851089 187.50884003 -219.54889679 186.5762738 -219.1474762 185.615448 C-217.14982053 180.82777089 -215.16747607 176.03458344 -213.21507263 171.22827148 C-212.45438453 169.35730332 -211.68741384 167.4888932 -210.92016602 165.62060547 C-210.06291503 163.53181733 -209.21567348 161.43886747 -208.38256836 159.34033203 C-203.11551547 146.59890545 -193.85850433 136.74205764 -181.4296875 130.7578125 C-174.73496921 128.11677685 -169.15538962 127.4706808 -162.00390625 127.5546875 C-161.18531128 127.55670166 -160.36671631 127.55871582 -159.52331543 127.56079102 C-156.49465247 127.57117613 -153.46607001 127.59909813 -150.4375 127.625 C-140.2590625 127.686875 -140.2590625 127.686875 -129.875 127.75 C-129.875 111.91 -129.875 96.07 -129.875 79.75 C-119.315 79.75 -108.755 79.75 -97.875 79.75 C-97.92140625 77.30207031 -97.9678125 74.85414062 -98.015625 72.33203125 C-98.04697282 69.91579249 -98.07117333 67.49957786 -98.09472656 65.08325195 C-98.11463061 63.42591934 -98.14176414 61.76865494 -98.17675781 60.11157227 C-98.57086528 40.94519902 -93.97128505 25.19617338 -80.875 10.75 C-60.08767198 -10.68574009 -25.65129401 -15.30515317 0 0 Z M-70.28125 24.8125 C-83.72185099 41.15205414 -81.875 58.93107048 -81.875 79.75 C-50.195 79.75 -18.515 79.75 14.125 79.75 C14.89016226 47.34334429 14.89016226 47.34334429 -0.9765625 21.5859375 C-11.90986825 11.27076917 -23.45025865 8.12551778 -38.09765625 8.44140625 C-50.9934592 9.05211337 -61.53733412 15.57364549 -70.28125 24.8125 Z " fill="#4F6698" transform="translate(289.875,48.25)"/>
<path d="M0 0 C158.4 0 316.8 0 480 0 C480 78.58522727 480 78.58522727 471.703125 87.46875 C464.8674251 93.61460862 457.73605095 96.24734129 448.54294205 96.25726891 C447.80963751 96.26077498 447.07633298 96.26428105 446.3208071 96.26789337 C443.86225345 96.27720131 441.403937 96.27228565 438.94537354 96.26742554 C437.16540641 96.27116211 435.38544093 96.27576365 433.60547805 96.28115618 C428.7128416 96.29340083 423.82027346 96.29312398 418.92762518 96.29076743 C413.65140572 96.29035963 408.37520826 96.30139488 403.09899902 96.31088257 C392.76120272 96.3275017 382.42342922 96.33299253 372.08562067 96.33410732 C363.68290875 96.33505739 355.28020435 96.3391656 346.87749481 96.34550858 C323.05778424 96.36312365 299.2380917 96.37234706 275.41837457 96.37084763 C273.49183091 96.37072776 273.49183091 96.37072776 271.52636719 96.37060547 C270.24043772 96.37052371 268.95450825 96.37044195 267.62961122 96.37035771 C246.78863598 96.36954478 225.947733 96.38868339 205.10677865 96.4168822 C183.71088046 96.44560359 162.31501753 96.4594229 140.91909957 96.45769465 C128.90555123 96.45703048 116.89207865 96.4625346 104.87854767 96.48405075 C94.64985973 96.50225273 84.42128189 96.50661794 74.19258478 96.4930319 C68.97414049 96.48649727 63.75590747 96.48640306 58.53748322 96.5037384 C53.7580443 96.5194521 48.97898447 96.51662277 44.19955489 96.49917014 C42.47278275 96.4960965 40.74598243 96.49974632 39.01924351 96.51089029 C27.494434 96.58032818 17.37299003 95.96097654 8.53125 87.703125 C-11.767497 65.12594722 0 22.91477239 0 0 Z " fill="#405A89" transform="translate(16,368)"/>
<path d="M0 0 C15.30338218 10.63883776 26.61117697 25.06492726 30.125 43.75 C30.36440318 46.64162399 30.36042988 49.50637026 30.3203125 52.40625 C30.3174826 53.19398804 30.31465271 53.98172607 30.31173706 54.79333496 C30.30065169 57.27905264 30.2755701 59.7643935 30.25 62.25 C30.2399551 63.94791142 30.23083191 65.64582855 30.22265625 67.34375 C30.20246253 71.4794243 30.16329355 75.6142965 30.125 79.75 C40.685 79.75 51.245 79.75 62.125 79.75 C62.125 95.59 62.125 111.43 62.125 127.75 C-1.235 127.75 -64.595 127.75 -129.875 127.75 C-129.875 111.91 -129.875 96.07 -129.875 79.75 C-119.315 79.75 -108.755 79.75 -97.875 79.75 C-97.92140625 77.30207031 -97.9678125 74.85414062 -98.015625 72.33203125 C-98.04697282 69.91579249 -98.07117333 67.49957786 -98.09472656 65.08325195 C-98.11463061 63.42591934 -98.14176414 61.76865494 -98.17675781 60.11157227 C-98.57086528 40.94519902 -93.97128505 25.19617338 -80.875 10.75 C-60.08767198 -10.68574009 -25.65129401 -15.30515317 0 0 Z M-70.28125 24.8125 C-83.72185099 41.15205414 -81.875 58.93107048 -81.875 79.75 C-50.195 79.75 -18.515 79.75 14.125 79.75 C14.89016226 47.34334429 14.89016226 47.34334429 -0.9765625 21.5859375 C-11.90986825 11.27076917 -23.45025865 8.12551778 -38.09765625 8.44140625 C-50.9934592 9.05211337 -61.53733412 15.57364549 -70.28125 24.8125 Z " fill="#E7E7F2" transform="translate(289.875,48.25)"/>
<path d="M0 0 C1.12457464 -0.00453111 2.24914927 -0.00906223 3.40780193 -0.01373065 C7.17228521 -0.02638062 10.93662393 -0.02475385 14.7011261 -0.02310181 C17.4018711 -0.02908672 20.10260482 -0.03583576 22.80334473 -0.04345703 C29.37641284 -0.06004622 35.94944507 -0.06556566 42.52253237 -0.06668179 C47.86837771 -0.06763338 53.21421126 -0.07174921 58.56005287 -0.07808304 C73.73107171 -0.09569081 88.90206228 -0.10492279 104.07309141 -0.10342209 C105.29904182 -0.10330222 105.29904182 -0.10330222 106.54975891 -0.10317993 C107.36806235 -0.10309817 108.18636579 -0.10301641 109.02946631 -0.10293217 C122.28380914 -0.1021197 135.53803822 -0.12124871 148.79234817 -0.14945666 C162.41606532 -0.17822093 176.03972706 -0.19199497 189.66347533 -0.19026911 C197.30638644 -0.18960637 204.94917832 -0.19504765 212.592062 -0.21662521 C219.10088714 -0.23488386 225.60953904 -0.23914622 232.11837878 -0.22560637 C235.43547213 -0.21909963 238.75196394 -0.22107101 242.06906891 -0.23631287 C245.67532701 -0.25180597 249.28072264 -0.24242902 252.88696289 -0.22705078 C254.43822208 -0.24248147 254.43822208 -0.24248147 256.02081984 -0.25822389 C265.36735369 -0.17059267 274.64351137 2.05707136 282.26094055 7.70492554 C283.03437805 8.26051147 283.80781555 8.81609741 284.60469055 9.38851929 C286.99680814 11.47295509 288.80862776 13.77362704 290.76094055 16.26742554 C290.14763406 16.26840235 289.53432756 16.26937915 288.90243602 16.27038556 C252.52707924 16.32869808 216.15178455 16.40252546 179.77650158 16.49641182 C175.40575496 16.50767955 171.03500802 16.51881807 166.66426086 16.52987671 C165.35909318 16.53318223 165.35909318 16.53318223 164.02755848 16.53655454 C149.95157991 16.57189608 135.87560141 16.59677794 121.79959497 16.61777256 C107.34890302 16.63955967 92.89826849 16.67263768 78.4476254 16.7161271 C69.53576202 16.74259372 60.62397014 16.76032581 51.71206942 16.76677158 C45.59512628 16.77204076 39.47827298 16.7883089 33.36137804 16.8130912 C29.83588378 16.82705396 26.31055017 16.83629669 22.78502655 16.8324337 C18.9530461 16.82836249 15.12137217 16.84751976 11.28944397 16.86869812 C10.18824116 16.86385054 9.08703836 16.85900297 7.95246577 16.8540085 C-4.5435998 16.96751911 -15.51539313 19.70074568 -25.16874695 27.90805054 C-34.51604336 37.46306464 -38.87405153 52.95787977 -43.88691711 65.17199707 C-45.34750829 68.73050258 -46.81607934 72.28570085 -48.28396606 75.84120178 C-49.0665457 77.73696836 -49.84873669 79.63289543 -50.6305542 81.52897644 C-55.07605235 92.30769671 -59.56316784 103.0690127 -64.05155945 113.82992554 C-65.72355617 117.83898937 -67.39542935 121.84810469 -69.06718445 125.85726929 C-69.48563629 126.86068863 -69.90408813 127.86410797 -70.33522034 128.89793396 C-73.04126812 135.3887025 -75.74173371 141.88176889 -78.43859863 148.37635803 C-80.28130059 152.81370082 -82.12554039 157.25040374 -83.96986389 161.68707275 C-84.8505305 163.80681188 -85.73044624 165.92686314 -86.60957336 168.04724121 C-87.82918327 170.98863267 -89.05142132 173.92891929 -90.2742157 176.86898804 C-90.63267578 177.73548477 -90.99113586 178.60198151 -91.36045837 179.49473572 C-91.69688354 180.30224777 -92.03330872 181.10975983 -92.37992859 181.94174194 C-92.81239647 182.98366196 -92.81239647 182.98366196 -93.25360107 184.04663086 C-94.48878499 186.83019831 -95.87715438 189.5436154 -97.23905945 192.26742554 C-102.51905945 192.26742554 -107.79905945 192.26742554 -113.23905945 192.26742554 C-112.32207148 187.6824857 -110.92642764 183.76573257 -109.1257782 179.49789429 C-108.64413208 178.34078949 -108.64413208 178.34078949 -108.15275574 177.16030884 C-107.08166219 174.59002766 -106.00408313 172.02251694 -104.92655945 169.45492554 C-104.16155489 167.62250721 -103.39699751 165.78990214 -102.63285828 163.9571228 C-101.00787215 160.06151351 -99.38029987 156.16699912 -97.7507782 152.27328491 C-95.28206376 146.3729808 -92.82189337 140.46914399 -90.36405945 134.56430054 C-87.03828063 126.57503948 -83.71023743 118.58672882 -80.37968445 110.59945679 C-76.44491358 101.16276934 -72.51455962 91.72425069 -68.58695984 82.28457642 C-66.4395875 77.1244028 -64.29014054 71.96511464 -62.13554382 66.80795288 C-61.32107309 64.8582532 -60.50661957 62.90854634 -59.69218445 60.95883179 C-59.30256531 60.02625549 -58.91294617 59.0936792 -58.51152039 58.13284302 C-56.51387285 53.34517483 -54.53153125 48.55199846 -52.57913208 43.74569702 C-51.81844398 41.87472885 -51.05147328 40.00631874 -50.28422546 38.13803101 C-49.42697448 36.04924287 -48.57973293 33.95629301 -47.74662781 31.85775757 C-42.47957492 19.11633099 -33.22256378 9.25948318 -20.79374695 3.27523804 C-13.66523439 0.46307253 -7.62607187 -0.02259533 0 0 Z " fill="#637BAE" transform="translate(129.2390594482422,175.73257446289063)"/>
<path d="M0 0 C0.70167801 -0.00241196 1.40335602 -0.00482391 2.126297 -0.00730896 C3.60809996 -0.00633254 5.08994032 0.00701266 6.5715332 0.03198242 C8.80875793 0.06605183 11.04197095 0.05269676 13.27929688 0.03320312 C24.97799251 0.0448674 35.0088491 2.21560218 43.64453125 10.62890625 C50.99210776 19.8705247 52.63101056 27.98601462 51.64453125 39.62890625 C50.02430095 45.75950738 46.45827636 50.64985013 42.64453125 55.62890625 C44.56443518 59.64493717 46.92883155 63.33536663 49.3046875 67.09375 C52.89922919 73.89508399 52.67063121 83.02125992 51.03125 90.3828125 C48.24050917 98.23868645 42.99910062 105.18333479 35.51953125 109.06640625 C34.24673465 109.63179015 32.9520163 110.14916364 31.64453125 110.62890625 C30.33307129 111.13683716 30.33307129 111.13683716 28.99511719 111.6550293 C25.26678179 112.73870242 21.82759126 112.95222087 17.98046875 112.96484375 C17.26597565 112.97150055 16.55148254 112.97815735 15.81533813 112.98501587 C14.31441809 112.99508613 12.81345379 112.99983464 11.3125 112.99951172 C9.01878826 113.00390767 6.72696867 113.04034368 4.43359375 113.078125 C2.97005862 113.08398995 1.50651442 113.0879615 0.04296875 113.08984375 C-0.6393985 113.10421478 -1.32176575 113.11858582 -2.02481079 113.13339233 C-5.40207633 113.10097322 -7.07486411 112.85150594 -9.75537109 110.72509766 C-11.98746536 107.80096562 -12.48204088 106.19953834 -12.5093689 102.58769226 C-12.51796936 101.74233917 -12.52656982 100.89698608 -12.53543091 100.02601624 C-12.53969086 99.09663742 -12.54395081 98.16725861 -12.54833984 97.2097168 C-12.55651733 96.23234558 -12.56469482 95.25497437 -12.57312012 94.24798584 C-12.59799408 91.00387185 -12.61449459 87.75980165 -12.62890625 84.515625 C-12.63422993 83.40941111 -12.6395536 82.30319721 -12.6450386 81.16346169 C-12.67177789 75.30925819 -12.691151 69.45507609 -12.70556641 63.60083008 C-12.72222319 57.54771469 -12.76700789 51.4951428 -12.81793785 45.44223309 C-12.85155784 40.7934149 -12.86313808 36.1447266 -12.86879349 31.49579811 C-12.87551962 29.26422785 -12.89077678 27.03266654 -12.9146843 24.80121422 C-12.94622749 21.67911566 -12.94638863 18.5584947 -12.93896484 15.4362793 C-12.95537018 14.51297318 -12.97177551 13.58966705 -12.98867798 12.63838196 C-12.94504737 8.16011715 -12.80857686 6.22877187 -10.03388977 2.5553894 C-6.52158919 0.0291294 -4.30393701 -0.00241417 0 0 Z " fill="#F2F2FB" transform="translate(287.35546875,215.37109375)"/>
<path d="M0 0 C1.67255859 -0.0009668 1.67255859 -0.0009668 3.37890625 -0.00195312 C4.54035156 0.01802734 5.70179687 0.03800781 6.8984375 0.05859375 C8.03667969 0.05150391 9.17492187 0.04441406 10.34765625 0.03710938 C22.36714432 0.12680705 31.77855521 2.96717635 41.2734375 10.49609375 C50.79727959 20.3197605 54.57367078 31.57133121 54.609375 45.04296875 C54.6193602 46.38165009 54.6193602 46.38165009 54.62954712 47.74737549 C54.63961898 49.62648475 54.64436584 51.50562939 54.64404297 53.38476562 C54.64840445 56.2245739 54.68474986 59.06281079 54.72265625 61.90234375 C54.8054456 75.22828501 53.42342027 86.47940192 45.2734375 97.49609375 C44.66757813 98.31980469 44.06171875 99.14351563 43.4375 99.9921875 C41.18045807 102.60367465 39.05106621 104.26781186 36.1484375 106.12109375 C35.27960938 106.69085938 34.41078125 107.260625 33.515625 107.84765625 C24.79700253 112.28049804 16.58486779 112.99392825 6.8984375 112.93359375 C5.73699219 112.95357422 4.57554688 112.97355469 3.37890625 112.99414062 C2.26386719 112.99349609 1.14882812 112.99285156 0 112.9921875 C-1.50699463 112.99496704 -1.50699463 112.99496704 -3.04443359 112.99780273 C-6.65804397 112.32185432 -7.56908974 111.492415 -9.7265625 108.49609375 C-10.33309655 105.18871634 -10.2726778 101.9132025 -10.24414062 98.55859375 C-10.2511499 97.55006348 -10.25815918 96.5415332 -10.26538086 95.50244141 C-10.28299468 92.16671261 -10.2713256 88.83183127 -10.2578125 85.49609375 C-10.26050643 83.17968584 -10.26438801 80.86327903 -10.26940918 78.546875 C-10.27530884 73.69129677 -10.26672588 68.83601279 -10.24804688 63.98046875 C-10.22525746 57.75244729 -10.23837798 51.5251153 -10.26233673 45.29711914 C-10.27678182 40.5136189 -10.27219455 35.73028248 -10.26182556 30.94677734 C-10.25915473 28.65022704 -10.2624405 26.35366192 -10.27174377 24.05712891 C-10.28188777 20.84888235 -10.26643733 17.64175669 -10.24414062 14.43359375 C-10.25223755 13.48178223 -10.26033447 12.5299707 -10.26867676 11.54931641 C-10.1859609 5.13411117 -10.1859609 5.13411117 -7.86184692 1.90635681 C-5.09167169 0.07677581 -3.30851381 -0.00610231 0 0 Z " fill="#F0F1FA" transform="translate(119.7265625,215.50390625)"/>
<path d="M0 0 C1.56687561 -0.01395813 1.56687561 -0.01395813 3.16540527 -0.02819824 C4.28322388 -0.01180298 5.40104248 0.00459229 6.55273438 0.02148438 C8.28892029 0.02142395 8.28892029 0.02142395 10.06018066 0.0213623 C12.50453122 0.02671784 14.94888131 0.0443017 17.39306641 0.07324219 C21.13302271 0.11508377 24.8711773 0.11431072 28.61132812 0.10742188 C30.98764271 0.11791492 33.36394803 0.13085363 35.74023438 0.14648438 C36.85805298 0.14668579 37.97587158 0.14688721 39.12756348 0.14709473 C40.69443909 0.17096252 40.69443909 0.17096252 42.29296875 0.1953125 C43.66600159 0.20794128 43.66600159 0.20794128 45.06677246 0.2208252 C48.18706664 0.69788337 50.09531072 1.78450064 52.64648438 3.61523438 C54.05106174 6.42438911 53.89543595 8.50333972 53.64648438 11.61523438 C51.86664033 14.75115008 51.12340231 15.45626173 47.64648438 16.61523438 C46.24992979 16.7011274 44.8496266 16.73296153 43.45043945 16.72875977 C42.60979446 16.72868423 41.76914948 16.7286087 40.9030304 16.72853088 C39.99981552 16.7233696 39.09660065 16.71820831 38.16601562 16.71289062 C37.23802658 16.71147568 36.31003754 16.71006073 35.35392761 16.70860291 C32.38891379 16.70300374 29.42397538 16.69045142 26.45898438 16.67773438 C24.44921984 16.67271927 22.43945412 16.66815638 20.4296875 16.6640625 C15.50190067 16.65388533 10.57427698 16.6343097 5.64648438 16.61523438 C5.64648438 27.17523438 5.64648438 37.73523438 5.64648438 48.61523438 C15.62366095 48.49678809 15.62366095 48.49678809 25.6003418 48.3449707 C26.84662354 48.33747803 28.09290527 48.32998535 29.37695312 48.32226562 C31.28577271 48.29869995 31.28577271 48.29869995 33.2331543 48.2746582 C36.88870986 48.63940322 38.74722796 49.40562158 41.64648438 51.61523438 C43.05106174 54.42438911 42.89543595 56.50333972 42.64648438 59.61523438 C40.86664033 62.75115008 40.12340231 63.45626173 36.64648438 64.61523438 C34.28968224 64.69920595 31.93054357 64.72251625 29.57226562 64.71289062 C28.32098877 64.71039307 27.06971191 64.70789551 25.78051758 64.70532227 C23.39385864 64.69166626 23.39385864 64.69166626 20.95898438 64.67773438 C15.90585938 64.65710938 10.85273438 64.63648438 5.64648438 64.61523438 C5.64648438 75.17523438 5.64648438 85.73523438 5.64648438 96.61523438 C8.62035156 96.58042969 11.59421875 96.545625 14.65820312 96.50976562 C17.54417969 96.48635732 20.43014561 96.46814797 23.31616211 96.45043945 C25.31914009 96.43536972 27.32208517 96.41491028 29.32495117 96.38891602 C32.20695118 96.3524531 35.08851422 96.33548977 37.97070312 96.32226562 C38.86359543 96.30678177 39.75648773 96.29129791 40.67643738 96.27534485 C45.48121505 96.2740495 48.76929296 96.43331684 52.64648438 99.61523438 C54.05106174 102.42438911 53.89543595 104.50333972 53.64648438 107.61523438 C51.86664033 110.75115008 51.12340231 111.45626173 47.64648438 112.61523438 C45.93472305 112.72262097 44.21917925 112.77394106 42.50415039 112.79223633 C40.93220665 112.81148918 40.93220665 112.81148918 39.32850647 112.83113098 C38.19722824 112.83851791 37.06595001 112.84590485 35.90039062 112.85351562 C34.15640236 112.86562325 34.15640236 112.86562325 32.37718201 112.87797546 C29.91675303 112.89181079 27.45630491 112.90253541 24.99584961 112.91040039 C21.22733505 112.92765038 17.45968927 112.97154719 13.69140625 113.015625 C11.30274083 113.02574863 8.91406796 113.03426576 6.52539062 113.04101562 C5.39613663 113.05852371 4.26688263 113.0760318 3.10340881 113.09407043 C2.05229416 113.09114487 1.0011795 113.0882193 -0.08178711 113.08520508 C-1.00539536 113.09107132 -1.9290036 113.09693756 -2.88059998 113.10298157 C-6.11229259 112.46557649 -7.28471853 111.11689869 -9.35351562 108.61523438 C-10.48711663 106.34803237 -10.48836583 105.09178393 -10.50741577 102.57402039 C-10.51601624 101.7286673 -10.5246167 100.88331421 -10.53347778 100.01234436 C-10.53773773 99.08296555 -10.54199768 98.15358673 -10.54638672 97.19604492 C-10.55456421 96.21867371 -10.5627417 95.24130249 -10.57116699 94.23431396 C-10.59604095 90.99019998 -10.61254147 87.74612978 -10.62695312 84.50195312 C-10.6322768 83.39573923 -10.63760048 82.28952534 -10.64308548 81.14978981 C-10.66982476 75.29558632 -10.68919788 69.44140422 -10.70361328 63.5871582 C-10.72027006 57.53404281 -10.76505476 51.48147092 -10.81598473 45.42856121 C-10.84960471 40.77974303 -10.86118496 36.13105473 -10.86684036 31.48212624 C-10.8735665 29.25055598 -10.88882366 27.01899467 -10.91273117 24.78754234 C-10.94427437 21.66544379 -10.94443551 18.54482283 -10.93701172 15.42260742 C-10.95341705 14.4993013 -10.96982239 13.57599518 -10.98672485 12.62471008 C-10.94389708 8.22884864 -10.77419577 6.20263624 -8.15164185 2.54072571 C-5.08140468 0.42798505 -3.67854814 -0.00825621 0 0 Z " fill="#F2F2FC" transform="translate(205.353515625,215.384765625)"/>
<path d="M0 0 C15.30338218 10.63883776 26.61117697 25.06492726 30.125 43.75 C30.36440318 46.64162399 30.36042988 49.50637026 30.3203125 52.40625 C30.3174826 53.19398804 30.31465271 53.98172607 30.31173706 54.79333496 C30.30065169 57.27905264 30.2755701 59.7643935 30.25 62.25 C30.2399551 63.94791142 30.23083191 65.64582855 30.22265625 67.34375 C30.20246253 71.4794243 30.16329355 75.6142965 30.125 79.75 C24.845 79.75 19.565 79.75 14.125 79.75 C14.07601562 78.16832031 14.02703125 76.58664063 13.9765625 74.95703125 C13.03265345 44.53771312 13.03265345 44.53771312 -3.6875 20 C-15.33253783 10.25434698 -28.24008039 8.53120265 -42.875 9.75 C-55.37890577 12.04215397 -65.44967476 19.61252924 -72.875 29.75 C-80.20757731 41.93364626 -80.92746721 54.44128031 -81.4375 68.3125 C-81.48068359 69.41658203 -81.52386719 70.52066406 -81.56835938 71.65820312 C-81.67344335 74.35535844 -81.77462413 77.05266536 -81.875 79.75 C-87.155 79.75 -92.435 79.75 -97.875 79.75 C-97.96769958 74.86009739 -98.04706025 69.97333898 -98.09472656 65.08325195 C-98.11463061 63.42591934 -98.14176414 61.76865494 -98.17675781 60.11157227 C-98.57086528 40.94519902 -93.97128505 25.19617338 -80.875 10.75 C-60.08767198 -10.68574009 -25.65129401 -15.30515317 0 0 Z " fill="#4E6598" transform="translate(289.875,48.25)"/>
<path d="M0 0 C63.36 0 126.72 0 192 0 C192 5.28 192 10.56 192 16 C133.92 16 75.84 16 16 16 C16 26.56 16 37.12 16 48 C10.72 48 5.44 48 0 48 C0 32.16 0 16.32 0 0 Z " fill="#F4F4FD" transform="translate(160,128)"/>
<path d="M0 0 C1.73618591 -0.00006042 1.73618591 -0.00006042 3.50744629 -0.00012207 C5.95179684 0.00523347 8.39614694 0.02281732 10.84033203 0.05175781 C14.58028833 0.09359939 18.31844293 0.09282635 22.05859375 0.0859375 C24.43490834 0.09643055 26.81121365 0.10936926 29.1875 0.125 C30.3053186 0.12520142 31.42313721 0.12540283 32.5748291 0.12561035 C34.14170471 0.14947815 34.14170471 0.14947815 35.74023438 0.17382812 C37.11326721 0.18645691 37.11326721 0.18645691 38.51403809 0.19934082 C41.63433226 0.676399 43.54257635 1.76301627 46.09375 3.59375 C47.49832737 6.40290474 47.34270157 8.48185534 47.09375 11.59375 C45.31390595 14.7296657 44.57066793 15.43477736 41.09375 16.59375 C39.68550107 16.67396999 38.27377769 16.70140977 36.86328125 16.69140625 C36.06083984 16.68818359 35.25839844 16.68496094 34.43164062 16.68164062 C33.18157227 16.66907227 33.18157227 16.66907227 31.90625 16.65625 C31.06126953 16.65173828 30.21628906 16.64722656 29.34570312 16.64257812 C27.26168845 16.63080403 25.17771023 16.6128689 23.09375 16.59375 C23.11040459 18.28717781 23.11040459 18.28717781 23.12739563 20.01481628 C23.22874407 30.65294213 23.30370229 41.29097006 23.35281086 51.92946911 C23.37890697 57.39890345 23.41430588 62.86794813 23.47094727 68.3371582 C23.52526563 73.61507816 23.55517043 78.89262327 23.56813622 84.17080116 C23.57737635 86.18468439 23.5954203 88.19854705 23.62240028 90.21227074 C23.65868813 93.03283424 23.66369545 95.85184813 23.66137695 98.67260742 C23.68834152 99.92201866 23.68834152 99.92201866 23.71585083 101.19667053 C23.67772043 105.48252709 23.46658548 107.11302058 20.74967957 110.61616516 C18.09375 112.59375 18.09375 112.59375 15.03125 113.15625 C11.47640419 112.47553485 10.316704 111.39302541 8.09375 108.59375 C6.45705241 105.32035483 6.96472724 101.70154193 6.98022461 98.10498047 C6.98007858 97.22686707 6.97993256 96.34875366 6.9797821 95.44403076 C6.98048042 92.5329748 6.98826905 89.62198232 6.99609375 86.7109375 C6.99795822 84.69597407 6.99938198 82.68101019 7.00038147 80.66604614 C7.00420438 75.3559647 7.01403276 70.0459105 7.02508545 64.73583984 C7.03530441 59.31999073 7.03988013 53.90413722 7.04492188 48.48828125 C7.05565521 37.85675885 7.07272894 27.22525669 7.09375 16.59375 C6.26182129 16.6251709 6.26182129 16.6251709 5.41308594 16.65722656 C2.89015977 16.74058548 0.36752351 16.79246868 -2.15625 16.84375 C-3.46529297 16.89402344 -3.46529297 16.89402344 -4.80078125 16.9453125 C-11.27031202 17.04408396 -11.27031202 17.04408396 -14.44921875 14.79296875 C-16.55139408 11.61998026 -16.97290352 9.3930008 -16.90625 5.59375 C-12.64180388 -0.91414502 -7.04724213 -0.10336328 0 0 Z " fill="#F2F2FB" transform="translate(363.90625,215.40625)"/>
<path d="M0 0 C17.27184466 0 17.27184466 0 24.84375 6.609375 C30.90282347 13.08426724 32.46504772 20.40144214 32.3984375 28.99609375 C32.40130768 29.82907486 32.40417786 30.66205597 32.40713501 31.52027893 C32.4091639 33.2707691 32.40371688 35.02128255 32.39111328 36.77172852 C32.37506274 39.42711956 32.39099119 42.08098412 32.41015625 44.73632812 C32.40817321 46.44791998 32.40432828 48.15951089 32.3984375 49.87109375 C32.40754654 51.04338783 32.40754654 51.04338783 32.4168396 52.23936462 C32.31725464 60.18288277 30.42783291 67.55428231 24.84375 73.42578125 C16.90686512 80.20240118 10.88725514 80 0 80 C0 53.6 0 27.2 0 0 Z " fill="#506799" transform="translate(126,232)"/>
<path d="M0 0 C5.28 0 10.56 0 16 0 C16.01401855 3.42814087 16.01401855 3.42814087 16.02832031 6.92553711 C16.06218277 14.50130358 16.11778296 22.0768003 16.18390274 29.65235043 C16.22330617 34.24261278 16.25552948 38.83268534 16.27099609 43.4230957 C16.2862099 47.85834564 16.32073851 52.29307356 16.36830902 56.72809029 C16.38307431 58.41479501 16.39103821 60.10157429 16.39188385 61.78834343 C16.40345163 75.99459677 16.40345163 75.99459677 22.89453125 88.33984375 C27.17158198 91.90260088 30.49774687 93.96832754 36 95 C36 95.33 36 95.66 36 96 C26.07506009 96.61391381 18.15466188 95.53444235 10.1875 89.25 C4.28046605 83.7330532 0.32537343 76.67400735 -0.24050903 68.54507446 C-0.23606781 67.27932587 -0.23162659 66.01357727 -0.22705078 64.70947266 C-0.22734283 64.00633942 -0.22763489 63.30320618 -0.22793579 62.57876587 C-0.22655162 60.27373558 -0.21103397 57.96903574 -0.1953125 55.6640625 C-0.19157912 54.05838192 -0.18873368 52.45269906 -0.18673706 50.84701538 C-0.17912621 46.63512811 -0.15949979 42.42338029 -0.1373291 38.21154785 C-0.1168156 33.90797817 -0.1077236 29.6043858 -0.09765625 25.30078125 C-0.07625132 16.86711659 -0.04109013 8.43359175 0 0 Z " fill="#4E6598" transform="translate(16,368)"/>
<path d="M0 0 C3.17625 -0.061875 6.3525 -0.12375 9.625 -0.1875 C11.1092749 -0.22846802 11.1092749 -0.22846802 12.62353516 -0.27026367 C18.62931488 -0.32671582 23.06376757 0.25905144 27.64453125 4.53515625 C31.83364552 10.01322875 32.62152402 13.18625519 32 20 C30.17465409 25.27322153 27.39280797 27.79691086 23 31 C20.11734851 31.96088383 18.32337729 32.11670941 15.33203125 32.09765625 C14.52741455 32.09515869 13.72279785 32.09266113 12.89379883 32.09008789 C11.36855591 32.07643188 11.36855591 32.07643188 9.8125 32.0625 C4.9553125 32.0315625 4.9553125 32.0315625 0 32 C0 21.44 0 10.88 0 0 Z " fill="#516799" transform="translate(291,280)"/>
<path d="M0 0 C3.17625 -0.061875 6.3525 -0.12375 9.625 -0.1875 C11.1092749 -0.22846802 11.1092749 -0.22846802 12.62353516 -0.27026367 C18.62931488 -0.32671582 23.06376757 0.25905144 27.64453125 4.53515625 C31.83364552 10.01322875 32.62152402 13.18625519 32 20 C30.17465409 25.27322153 27.39280797 27.79691086 23 31 C20.11734851 31.96088383 18.32337729 32.11670941 15.33203125 32.09765625 C14.52741455 32.09515869 13.72279785 32.09266113 12.89379883 32.09008789 C11.36855591 32.07643188 11.36855591 32.07643188 9.8125 32.0625 C4.9553125 32.0315625 4.9553125 32.0315625 0 32 C0 21.44 0 10.88 0 0 Z " fill="#516799" transform="translate(291,232)"/>
</svg>
